<svg width="300" height="300" viewBox="0 0 300 300" fill="none" xmlns="http://www.w3.org/2000/svg">
<rect width="300" height="300" fill="white"/>
<path d="M141.791 143.966C150.128 143.966 156.913 137.198 156.913 128.88C156.913 120.561 150.128 113.793 141.791 113.793C133.453 113.793 126.67 120.561 126.67 128.88C126.67 137.198 133.453 143.966 141.791 143.966V143.966ZM141.791 122.641C145.239 122.641 148.044 125.44 148.044 128.88C148.044 132.319 145.239 135.117 141.791 135.117C138.344 135.117 135.539 132.319 135.539 128.88C135.539 125.44 138.344 122.641 141.791 122.641Z" fill="black"/>
<path d="M232.5 85.8398H67.4995C63.9157 85.8398 61 88.2969 61 91.317V209.01C61 212.03 63.9157 214.487 67.4995 214.487H232.5C236.084 214.487 239 212.03 239 209.01V91.317C239 88.2969 236.084 85.8398 232.5 85.8398ZM228.57 94.6289V164.182L195.768 136.538C193.63 134.739 190.152 134.74 188.014 136.542L141.622 175.636L111.989 150.665C110.952 149.791 109.574 149.309 108.107 149.309C106.642 149.309 105.265 149.789 104.229 150.663L71.4297 178.302V94.6289H228.57ZM71.4297 205.698V190.732L108.107 159.824L137.74 184.795C138.777 185.669 140.156 186.152 141.622 186.152C143.086 186.152 144.465 185.67 145.499 184.797L191.893 145.702L228.572 176.611V205.698H71.4297Z" fill="black"/>
</svg>
