<svg width="300" height="300" viewBox="0 0 300 300" fill="none" xmlns="http://www.w3.org/2000/svg">
<circle cx="150" cy="150" r="150" fill="white"/>
<g opacity="0.9">
<g clip-path="url(#clip0)">
<path d="M148.931 147.256C158.858 147.256 167.452 143.695 174.477 136.671C181.499 129.648 185.06 121.054 185.06 111.127C185.06 101.202 181.5 92.6078 174.475 85.5823C167.451 78.5603 158.857 75 148.931 75C139.003 75 130.41 78.5603 123.387 85.5835C116.364 92.6067 112.802 101.201 112.802 111.127C112.802 121.054 116.364 129.649 123.387 136.672C130.412 143.694 139.007 147.256 148.931 147.256V147.256ZM129.603 91.7987C134.992 86.4097 141.314 83.7902 148.931 83.7902C156.547 83.7902 162.87 86.4097 168.26 91.7987C173.649 97.1889 176.27 103.512 176.27 111.127C176.27 118.744 173.649 125.066 168.26 130.456C162.87 135.846 156.547 138.465 148.931 138.465C141.316 138.465 134.995 135.845 129.603 130.456C124.213 125.067 121.592 118.744 121.592 111.127C121.592 103.512 124.213 97.1889 129.603 91.7987Z" fill="black"/>
<path d="M212.147 190.343C211.945 187.42 211.535 184.232 210.932 180.865C210.323 177.473 209.539 174.266 208.601 171.336C207.63 168.306 206.313 165.315 204.682 162.448C202.992 159.473 201.005 156.882 198.776 154.75C196.445 152.519 193.591 150.726 190.29 149.418C187.001 148.117 183.356 147.457 179.457 147.457C177.926 147.457 176.445 148.086 173.585 149.948C171.825 151.096 169.766 152.423 167.468 153.891C165.503 155.143 162.841 156.316 159.554 157.378C156.346 158.416 153.089 158.943 149.873 158.943C146.659 158.943 143.402 158.416 140.192 157.378C136.908 156.317 134.245 155.144 132.283 153.892C130.007 152.438 127.947 151.11 126.161 149.947C123.303 148.085 121.822 147.456 120.291 147.456C116.391 147.456 112.747 148.117 109.459 149.419C106.161 150.725 103.306 152.518 100.972 154.751C98.7431 156.884 96.7564 159.474 95.0672 162.448C93.4387 165.315 92.1204 168.305 91.1499 171.337C90.2126 174.267 89.4287 177.473 88.8199 180.865C88.2156 184.227 87.8071 187.417 87.6045 190.346C87.4054 193.211 87.3047 196.192 87.3047 199.204C87.3047 207.034 89.7938 213.373 94.7021 218.048C99.5499 222.661 105.963 225 113.765 225H185.991C193.79 225 200.203 222.661 205.052 218.048C209.961 213.376 212.45 207.035 212.45 199.203C212.449 196.181 212.347 193.199 212.147 190.343V190.343ZM198.991 211.679C195.788 214.728 191.535 216.21 185.989 216.21H113.765C108.218 216.21 103.965 214.728 100.763 211.68C97.6215 208.69 96.0949 204.608 96.0949 199.204C96.0949 196.393 96.1876 193.618 96.373 190.954C96.5538 188.34 96.9234 185.469 97.4716 182.418C98.0129 179.405 98.7019 176.577 99.5213 174.017C100.307 171.562 101.38 169.131 102.71 166.79C103.979 164.558 105.439 162.644 107.05 161.101C108.558 159.658 110.457 158.477 112.696 157.591C114.766 156.772 117.093 156.323 119.618 156.256C119.926 156.419 120.474 156.732 121.362 157.311C123.169 158.488 125.252 159.832 127.555 161.302C130.15 162.957 133.494 164.452 137.489 165.742C141.574 167.062 145.739 167.733 149.874 167.733C154.009 167.733 158.176 167.062 162.258 165.743C166.256 164.451 169.599 162.957 172.198 161.3C174.554 159.794 176.579 158.49 178.386 157.311C179.274 156.733 179.822 156.419 180.13 156.256C182.657 156.323 184.983 156.772 187.055 157.591C189.292 158.477 191.192 159.659 192.699 161.101C194.31 162.643 195.771 164.557 197.04 166.791C198.371 169.131 199.444 171.563 200.229 174.016C201.05 176.579 201.74 179.406 202.28 182.417C202.827 185.474 203.198 188.346 203.379 190.955V190.958C203.565 193.611 203.659 196.385 203.66 199.204C203.659 204.609 202.132 208.69 198.991 211.679V211.679Z" fill="black"/>
</g>
</g>
<defs>
<clipPath id="clip0">
<rect x="75" y="75" width="150" height="150" fill="white"/>
</clipPath>
</defs>
</svg>
